<svg width="188" height="131" viewBox="0 0 188 131" fill="none" xmlns="http://www.w3.org/2000/svg">
<g clip-path="url(#clip0_51_23)">
<path d="M94.1876 9.83361C103.171 9.83361 110.454 7.63228 110.454 4.91681C110.454 2.20133 103.171 0 94.1876 0C85.204 0 77.9214 2.20133 77.9214 4.91681C77.9214 7.63228 85.204 9.83361 94.1876 9.83361Z" fill="#D96541"/>
<path d="M96.7526 6.0127H90.9343V23.8635H96.7526V6.0127Z" fill="#D96541"/>
<path d="M93.8435 17.6941C100.875 17.6941 106.575 16.6986 106.575 15.4706C106.575 14.2426 100.875 13.2471 93.8435 13.2471C86.8121 13.2471 81.1121 14.2426 81.1121 15.4706C81.1121 16.6986 86.8121 17.6941 93.8435 17.6941Z" fill="#D96541"/>
<path d="M106.544 15.4707H81.1121V31.2546H106.544V15.4707Z" fill="#D96541"/>
<path d="M173.329 80.4228C173.329 49.6692 137.919 24.7407 94.2191 24.7407C50.5192 24.7407 15.0776 49.6692 15.0776 80.4228C15.0776 111.176 47.2034 130.248 90.9033 130.248C134.603 130.248 173.298 111.176 173.298 80.4228H173.329Z" fill="#D96541"/>
<path d="M173.329 80.4229H15.0776V130.906H173.329V80.4229Z" fill="#D96541"/>
<path d="M15.3278 130.248C23.7931 130.248 30.6556 122.747 30.6556 113.493C30.6556 104.24 23.7931 96.7388 15.3278 96.7388C6.86248 96.7388 0 104.24 0 113.493C0 122.747 6.86248 130.248 15.3278 130.248Z" fill="#D96541"/>
<path d="M0 114.089H24.4932C29.1228 114.089 32.9078 117.847 32.9078 122.513C32.9078 127.148 29.1541 130.938 24.4932 130.938H8.41464C3.75374 130.906 0 127.148 0 122.513V114.089Z" fill="#D96541"/>
<path d="M163.069 114.183H188V123.045C188 127.461 184.434 131.031 180.023 131.031H163.069C158.658 131.031 155.092 127.461 155.092 123.045V122.169C155.092 117.753 158.658 114.183 163.069 114.183Z" fill="#D96541"/>
<path d="M172.672 130.248C181.138 130.248 188 122.747 188 113.493C188 104.24 181.138 96.7388 172.672 96.7388C164.207 96.7388 157.344 104.24 157.344 113.493C157.344 122.747 164.207 130.248 172.672 130.248Z" fill="#D96541"/>
<path d="M78.203 109.422H10.229V130.906H78.203V109.422Z" fill="#D96541"/>
<path d="M183.308 109.422H115.334V130.906H183.308V109.422Z" fill="#D96541"/>
<path d="M77.4334 106.52C74.7294 106.52 72.2508 105.757 69.9974 104.232C67.7788 102.707 66.0108 100.557 64.6934 97.784C63.3761 94.976 62.7174 91.6827 62.7174 87.904C62.7174 84.1253 63.3588 80.8493 64.6414 78.076C65.9588 75.3027 67.7268 73.1707 69.9454 71.68C72.1641 70.1547 74.6081 69.392 77.2774 69.392C80.0161 69.392 82.4948 70.1547 84.7134 71.68C86.9321 73.1707 88.6828 75.3027 89.9654 78.076C91.2828 80.8493 91.9414 84.1427 91.9414 87.956C91.9414 91.7347 91.2828 95.028 89.9654 97.836C88.6828 100.609 86.9321 102.759 84.7134 104.284C82.5294 105.775 80.1028 106.52 77.4334 106.52ZM77.3294 101.892C79.2361 101.892 80.9001 101.372 82.3214 100.332C83.7774 99.2573 84.9214 97.68 85.7534 95.6C86.5854 93.52 87.0014 90.9547 87.0014 87.904C87.0014 84.8533 86.5854 82.3053 85.7534 80.26C84.9214 78.18 83.7774 76.62 82.3214 75.58C80.8654 74.5053 79.1841 73.968 77.2774 73.968C75.4054 73.968 73.7414 74.5053 72.2854 75.58C70.8294 76.62 69.6854 78.18 68.8534 80.26C68.0561 82.3053 67.6574 84.8533 67.6574 87.904C67.6574 90.9547 68.0561 93.52 68.8534 95.6C69.6854 97.68 70.8294 99.2573 72.2854 100.332C73.7414 101.372 75.4228 101.892 77.3294 101.892ZM104.278 84.004C102.961 84.004 101.748 83.6747 100.638 83.016C99.5291 82.3573 98.6451 81.4733 97.9864 80.364C97.3278 79.2547 96.9984 78.024 96.9984 76.672C96.9984 75.2853 97.3104 74.0547 97.9344 72.98C98.5931 71.9053 99.4771 71.0387 100.586 70.38C101.696 69.7213 102.926 69.392 104.278 69.392C105.665 69.392 106.913 69.7213 108.022 70.38C109.132 71.0387 110.016 71.9053 110.674 72.98C111.333 74.0547 111.662 75.2853 111.662 76.672C111.662 78.024 111.333 79.2547 110.674 80.364C110.016 81.4733 109.132 82.3573 108.022 83.016C106.948 83.6747 105.7 84.004 104.278 84.004ZM104.278 80.312C105.318 80.312 106.168 79.9827 106.826 79.324C107.485 78.6307 107.814 77.7467 107.814 76.672C107.814 75.5973 107.468 74.7307 106.774 74.072C106.116 73.4133 105.284 73.084 104.278 73.084C103.273 73.084 102.441 73.4133 101.782 74.072C101.158 74.7307 100.846 75.5973 100.846 76.672C100.846 77.7467 101.158 78.6307 101.782 79.324C102.441 79.9827 103.273 80.312 104.278 80.312ZM118.786 106.52C117.434 106.52 116.204 106.191 115.094 105.532C113.985 104.873 113.101 104.007 112.442 102.932C111.784 101.823 111.454 100.575 111.454 99.188C111.454 97.836 111.784 96.6227 112.442 95.548C113.101 94.4387 113.985 93.5547 115.094 92.896C116.204 92.2373 117.434 91.908 118.786 91.908C120.138 91.908 121.369 92.2373 122.478 92.896C123.622 93.5547 124.524 94.4387 125.182 95.548C125.841 96.6227 126.17 97.836 126.17 99.188C126.17 100.575 125.841 101.823 125.182 102.932C124.524 104.007 123.64 104.873 122.53 105.532C121.421 106.191 120.173 106.52 118.786 106.52ZM118.786 102.828C119.826 102.828 120.676 102.499 121.334 101.84C121.993 101.147 122.322 100.263 122.322 99.188C122.322 98.148 121.976 97.2987 121.282 96.64C120.624 95.9467 119.792 95.6 118.786 95.6C117.781 95.6 116.949 95.9467 116.29 96.64C115.632 97.2987 115.302 98.148 115.302 99.188C115.302 100.263 115.632 101.147 116.29 101.84C116.949 102.499 117.781 102.828 118.786 102.828ZM97.6224 106L120.762 69.912H125.494L102.354 106H97.6224Z" fill="white"/>
</g>
<defs>
<clipPath id="clip0_51_23">
<rect width="188" height="131" fill="white"/>
</clipPath>
</defs>
</svg>
