<svg width="188" height="131" viewBox="0 0 188 131" fill="none" xmlns="http://www.w3.org/2000/svg">
<g clip-path="url(#clip0_51_229)">
<path d="M94.1876 9.83361C103.171 9.83361 110.454 7.63228 110.454 4.91681C110.454 2.20133 103.171 0 94.1876 0C85.204 0 77.9214 2.20133 77.9214 4.91681C77.9214 7.63228 85.204 9.83361 94.1876 9.83361Z" fill="#D96541"/>
<path d="M96.7529 6.0127H90.9346V23.8635H96.7529V6.0127Z" fill="#D96541"/>
<path d="M93.8438 17.6941C100.875 17.6941 106.575 16.6986 106.575 15.4706C106.575 14.2426 100.875 13.2471 93.8438 13.2471C86.8124 13.2471 81.1123 14.2426 81.1123 15.4706C81.1123 16.6986 86.8124 17.6941 93.8438 17.6941Z" fill="#D96541"/>
<path d="M106.544 15.4707H81.1123V31.2546H106.544V15.4707Z" fill="#D96541"/>
<path d="M173.329 80.4228C173.329 49.6692 137.919 24.7407 94.2191 24.7407C50.5192 24.7407 15.0776 49.6692 15.0776 80.4228C15.0776 111.176 47.2034 130.248 90.9033 130.248C134.603 130.248 173.298 111.176 173.298 80.4228H173.329Z" fill="#D96541"/>
<path d="M173.329 80.4229H15.0776V130.906H173.329V80.4229Z" fill="#D96541"/>
<path d="M15.3278 130.248C23.7931 130.248 30.6556 122.747 30.6556 113.493C30.6556 104.24 23.7931 96.7388 15.3278 96.7388C6.86248 96.7388 0 104.24 0 113.493C0 122.747 6.86248 130.248 15.3278 130.248Z" fill="#D96541"/>
<path d="M0 114.089H24.4932C29.1228 114.089 32.9078 117.847 32.9078 122.513C32.9078 127.148 29.1541 130.938 24.4932 130.938H8.41464C3.75374 130.906 0 127.148 0 122.513V114.089Z" fill="#D96541"/>
<path d="M163.069 114.183H188V123.045C188 127.461 184.434 131.031 180.023 131.031H163.069C158.658 131.031 155.092 127.461 155.092 123.045V122.169C155.092 117.753 158.658 114.183 163.069 114.183Z" fill="#D96541"/>
<path d="M172.672 130.248C181.137 130.248 188 122.747 188 113.493C188 104.24 181.137 96.7388 172.672 96.7388C164.207 96.7388 157.344 104.24 157.344 113.493C157.344 122.747 164.207 130.248 172.672 130.248Z" fill="#D96541"/>
<path d="M78.203 109.422H10.229V130.906H78.203V109.422Z" fill="#D96541"/>
<path d="M183.308 109.422H115.334V130.906H183.308V109.422Z" fill="#D96541"/>
<path d="M90.7 99.9L88.7 61.1L88.4 49.2H99.5L99.2 61.1L97.2 99.9H90.7ZM94 124.5C90.4 124.5 87.5 122 87.5 118C87.5 114 90.4 111.3 94 111.3C97.5 111.3 100.4 114 100.4 118C100.4 122 97.5 124.5 94 124.5Z" fill="white"/>
</g>
<defs>
<clipPath id="clip0_51_229">
<rect width="188" height="131" fill="white"/>
</clipPath>
</defs>
</svg>
