<svg width="435" height="391" viewBox="0 0 435 391" fill="none" xmlns="http://www.w3.org/2000/svg">
<g clip-path="url(#clip0_82_62)">
<path d="M217.934 22.7449C238.721 22.7449 255.572 17.6533 255.572 11.3725C255.572 5.09162 238.721 0 217.934 0C197.148 0 180.297 5.09162 180.297 11.3725C180.297 17.6533 197.148 22.7449 217.934 22.7449Z" fill="#D96541"/>
<path d="M223.869 13.9077H210.407V55.1963H223.869V13.9077Z" fill="#D96541"/>
<path d="M217.138 40.9265C233.408 40.9265 246.597 38.624 246.597 35.7836C246.597 32.9432 233.408 30.6406 217.138 30.6406C200.869 30.6406 187.68 32.9432 187.68 35.7836C187.68 38.624 200.869 40.9265 217.138 40.9265Z" fill="#D96541"/>
<path d="M246.524 35.7832H187.68V72.291H246.524V35.7832Z" fill="#D96541"/>
<path d="M401.054 186.016C401.054 114.884 319.121 57.2246 218.007 57.2246C116.893 57.2246 34.8869 114.884 34.8869 186.016C34.8869 257.148 109.22 301.262 210.334 301.262C311.448 301.262 400.982 257.148 400.982 186.016H401.054Z" fill="#D96541"/>
<path d="M401.054 186.016H34.8869V302.783H401.054V186.016Z" fill="#D96541"/>
<path d="M35.4659 301.261C55.0532 301.261 70.9318 283.911 70.9318 262.508C70.9318 241.105 55.0532 223.755 35.4659 223.755C15.8786 223.755 0 241.105 0 262.508C0 283.911 15.8786 301.261 35.4659 301.261Z" fill="#D96541"/>
<path d="M0 263.885H56.673C67.3852 263.885 76.1431 272.577 76.1431 283.37C76.1431 294.091 67.4576 302.855 56.673 302.855H19.47C8.68552 302.783 0 294.091 0 283.37V263.885Z" fill="#D96541"/>
<path d="M377.314 264.102H435V284.601C435 294.814 426.749 303.072 416.543 303.072H377.314C367.108 303.072 358.857 294.814 358.857 284.601V282.573C358.857 272.359 367.108 264.102 377.314 264.102Z" fill="#D96541"/>
<path d="M399.534 301.261C419.121 301.261 435 283.911 435 262.508C435 241.105 419.121 223.755 399.534 223.755C379.947 223.755 364.068 241.105 364.068 262.508C364.068 283.911 379.947 301.261 399.534 301.261Z" fill="#D96541"/>
<path d="M180.948 253.091H23.6681V302.782H180.948V253.091Z" fill="#D96541"/>
<path d="M424.143 253.091H266.863V302.782H424.143V253.091Z" fill="#D96541"/>
<path d="M282.062 142.482C281.266 145.959 280.615 149.436 279.602 152.84C276.272 164.14 269.179 172.833 260.71 180.656C257.092 183.988 253.183 187.175 249.419 190.435C235.45 202.459 227.054 217.308 226.909 236.576H207.512C207.15 222.379 209.538 208.906 219.092 197.968C226.547 189.42 234.871 181.742 242.76 173.557C247.176 168.994 251.518 164.285 255.644 159.504C268.166 144.872 261.724 123.214 250.722 113.725C232.7 98.0786 194.121 99.7447 181.021 122.779C176.678 130.385 174.434 138.57 173.928 147.19C173.711 150.233 172.842 151.319 169.802 151.174C165.604 150.957 161.406 151.029 157.208 151.174C154.602 151.174 153.661 150.377 153.806 147.625C155.688 114.015 176.75 91.0523 210.045 86.5613C211.058 86.4164 212.072 85.9094 213.012 85.6196C218.586 85.6196 224.159 85.6196 229.805 85.6196C230.601 85.9818 231.469 86.4164 232.338 86.5613C242.616 88.2273 251.88 92.3562 260.204 98.6581C271.567 107.206 278.805 118.433 281.99 132.341V142.627L282.062 142.482Z" fill="white"/>
<path d="M217.862 290.903C208.814 290.903 201.866 284.674 201.794 276.416C201.794 268.014 208.814 261.35 217.934 261.35C226.692 261.35 234.075 268.014 234.22 275.982C234.292 284.312 227.126 290.903 217.934 290.903H217.862Z" fill="white"/>
</g>
<path d="M57.68 353.216V349.744H91.56L92.176 349.52L95.088 350.416C92.456 356.464 88.144 365.592 84.56 372.424L80.808 371.416C83.776 365.816 87.36 358.368 89.656 353.216H57.68ZM89.32 342.352H64.736V338.88H89.32V342.352ZM74.704 321.128H78.344C84.168 329.36 94.192 338.096 102.928 342.8C101.976 343.696 101.08 344.872 100.408 345.992C91.784 340.784 81.872 332.048 76.72 324.824C72.24 331.712 63.056 340.504 53.592 346.328C53.088 345.488 52.024 344.256 51.24 343.472C60.872 337.816 70.336 328.52 74.704 321.128ZM147.392 348.176H119V364.248H147.392V348.176ZM119 344.48H147.392V328.856H119V344.48ZM119 371.584H115.192V325.104H151.256V371.304H147.392V367.944H119V371.584ZM176.232 321.296L179.704 322.36C178.304 326.224 176.568 330.088 174.608 333.784V372.2H170.912V340C169.176 342.632 167.328 345.04 165.48 347.112C165.144 346.272 164.024 344.368 163.352 343.528C168.504 338.096 173.264 329.752 176.232 321.296ZM185.304 354.28H195.552V341.848H185.304V354.28ZM181.776 338.544H199.024V357.584H185.304V361.56H181.776V338.544ZM179.984 330.312V326.728H214.648V330.312H210.448V366.88C210.448 369.736 209.664 370.856 207.76 371.472C205.744 372.088 202.104 372.2 196.56 372.144C196.392 371.024 195.776 369.456 195.16 368.28C199.808 368.448 203.952 368.392 205.24 368.336C206.36 368.28 206.752 368 206.752 366.88V330.312H179.984ZM257.208 352.824V347.56H232.904V352.824H257.208ZM242.984 330.704H246.736V336.528H259.56C253.848 332.944 248.36 328.632 244.776 324.544C241.64 328.464 236.544 332.776 230.776 336.528H242.984V330.704ZM257.208 344.648V339.608H232.904V344.648H257.208ZM264.208 353.496L267.008 355.624C263.144 358.424 258.216 361.392 253.848 363.576C258.272 366.264 263.872 368.056 270.2 368.952C269.36 369.736 268.352 371.248 267.904 372.2C255.864 370.072 246.848 364.808 242.088 355.904H232.904V367.328L247.8 365.984V369.232C239.008 370.184 229.768 371.136 223.384 371.696L222.824 368.28L229.264 367.664V337.48C226.744 339.048 224.112 340.504 221.48 341.736C221.032 340.896 220.08 339.552 219.296 338.768C228.816 334.568 238.168 327.512 242.76 321.184H246.344C252.448 328.184 262.304 334.792 270.928 338.152C270.088 338.992 269.192 340.336 268.576 341.4C266.056 340.28 263.424 338.88 260.848 337.312V355.904H245.84C247.24 358.088 248.976 359.992 251.104 361.672C255.528 359.432 260.904 356.072 264.208 353.496ZM312.76 329.36L315.56 329.304C315.616 333.112 315.728 336.976 315.728 336.976L312.928 337.088C312.928 337.088 312.816 333.168 312.76 329.36ZM320.432 329.304L320.656 336.808L317.856 336.92L317.632 329.36L320.432 329.304ZM306.992 340.56C312.928 345.376 320.096 351.032 325.08 354.448L322.952 357.528C314.328 351.592 299.768 339.44 295.344 335.744L279.16 351.816L276.528 349.184L293.888 331.88L296.408 331.824C296.464 331.824 301.112 335.744 306.992 340.56ZM377.888 344.536L381.304 346.048C378.728 351.76 375.928 359.04 368.144 363.576C367.024 364.192 365.904 364.584 364.728 364.584H364.672C363.496 364.584 362.264 364.08 361.424 363.128C360.584 362.12 360.192 360.832 360.136 359.488L358.624 325.272L362.32 325.104L363.888 359.32C363.944 360.16 364.112 360.552 364.224 360.664C364.336 360.776 364.392 360.832 364.728 360.832C365.064 360.832 365.624 360.72 366.24 360.328C372.792 356.576 375.256 350.416 377.888 344.536ZM334.6 366.04L331.968 363.352C340.032 355.568 342.608 342.968 343.952 327.456L347.648 327.736C346.248 343.472 343.784 357.024 334.6 366.04Z" fill="#D96541"/>
<defs>
<clipPath id="clip0_82_62">
<rect width="435" height="303" fill="white"/>
</clipPath>
</defs>
</svg>
