<svg width="188" height="131" viewBox="0 0 188 131" fill="none" xmlns="http://www.w3.org/2000/svg">
<g clip-path="url(#clip0_51_165)">
<path d="M94.1876 9.83361C103.171 9.83361 110.454 7.63228 110.454 4.91681C110.454 2.20133 103.171 0 94.1876 0C85.204 0 77.9214 2.20133 77.9214 4.91681C77.9214 7.63228 85.204 9.83361 94.1876 9.83361Z" fill="#D96541"/>
<path d="M96.7526 6.0127H90.9343V23.8635H96.7526V6.0127Z" fill="#D96541"/>
<path d="M93.8435 17.6941C100.875 17.6941 106.575 16.6986 106.575 15.4706C106.575 14.2426 100.875 13.2471 93.8435 13.2471C86.8121 13.2471 81.1121 14.2426 81.1121 15.4706C81.1121 16.6986 86.8121 17.6941 93.8435 17.6941Z" fill="#D96541"/>
<path d="M106.544 15.4707H81.1121V31.2546H106.544V15.4707Z" fill="#D96541"/>
<path d="M173.329 80.4228C173.329 49.6692 137.919 24.7407 94.2191 24.7407C50.5192 24.7407 15.0776 49.6692 15.0776 80.4228C15.0776 111.176 47.2034 130.248 90.9033 130.248C134.603 130.248 173.298 111.176 173.298 80.4228H173.329Z" fill="#D96541"/>
<path d="M173.329 80.4229H15.0776V130.906H173.329V80.4229Z" fill="#D96541"/>
<path d="M15.3278 130.248C23.7931 130.248 30.6556 122.747 30.6556 113.493C30.6556 104.24 23.7931 96.7388 15.3278 96.7388C6.86248 96.7388 0 104.24 0 113.493C0 122.747 6.86248 130.248 15.3278 130.248Z" fill="#D96541"/>
<path d="M0 114.089H24.4932C29.1228 114.089 32.9078 117.847 32.9078 122.513C32.9078 127.148 29.1541 130.938 24.4932 130.938H8.41464C3.75374 130.906 0 127.148 0 122.513V114.089Z" fill="#D96541"/>
<path d="M163.069 114.183H188V123.045C188 127.461 184.434 131.031 180.023 131.031H163.069C158.658 131.031 155.092 127.461 155.092 123.045V122.169C155.092 117.753 158.658 114.183 163.069 114.183Z" fill="#D96541"/>
<path d="M172.672 130.248C181.138 130.248 188 122.747 188 113.493C188 104.24 181.138 96.7388 172.672 96.7388C164.207 96.7388 157.344 104.24 157.344 113.493C157.344 122.747 164.207 130.248 172.672 130.248Z" fill="#D96541"/>
<path d="M78.203 109.422H10.229V130.906H78.203V109.422Z" fill="#D96541"/>
<path d="M183.308 109.422H115.334V130.906H183.308V109.422Z" fill="#D96541"/>
<path d="M59.1272 106.52C56.7699 106.52 54.6205 106.087 52.6792 105.22C50.7725 104.319 49.1605 103.019 47.8432 101.32L51.1712 97.992C51.9685 99.2053 53.0605 100.176 54.4472 100.904C55.8339 101.597 57.3765 101.944 59.0752 101.944C60.6699 101.944 62.0392 101.649 63.1832 101.06C64.3619 100.436 65.2805 99.5693 65.9392 98.46C66.6325 97.3507 66.9792 96.068 66.9792 94.612C66.9792 93.1213 66.6325 91.8387 65.9392 90.764C65.2805 89.6547 64.3445 88.8053 63.1312 88.216C61.9179 87.6267 60.4792 87.332 58.8152 87.332C58.1912 87.332 57.5672 87.384 56.9432 87.488C56.3192 87.5573 55.7125 87.6787 55.1232 87.852L57.2032 85.044C57.8619 84.732 58.5725 84.4893 59.3352 84.316C60.0979 84.1427 60.8605 84.056 61.6232 84.056C63.5645 84.056 65.2979 84.5067 66.8232 85.408C68.3832 86.3093 69.6139 87.5747 70.5152 89.204C71.4512 90.8333 71.9192 92.7227 71.9192 94.872C71.9192 97.16 71.3645 99.188 70.2552 100.956C69.1805 102.689 67.6899 104.059 65.7832 105.064C63.8765 106.035 61.6579 106.52 59.1272 106.52ZM55.1232 87.852V84.888L65.6792 72.876L71.5032 72.824L60.6352 85.148L55.1232 87.852ZM49.5592 74.28V69.912H71.5032V72.824L67.2392 74.28H49.5592ZM91.4237 106.52C88.7197 106.52 86.241 105.757 83.9877 104.232C81.769 102.707 80.001 100.557 78.6837 97.784C77.3663 94.976 76.7077 91.6827 76.7077 87.904C76.7077 84.1253 77.349 80.8493 78.6317 78.076C79.949 75.3027 81.717 73.1707 83.9357 71.68C86.1543 70.1547 88.5983 69.392 91.2677 69.392C94.0063 69.392 96.485 70.1547 98.7037 71.68C100.922 73.1707 102.673 75.3027 103.956 78.076C105.273 80.8493 105.932 84.1427 105.932 87.956C105.932 91.7347 105.273 95.028 103.956 97.836C102.673 100.609 100.922 102.759 98.7037 104.284C96.5197 105.775 94.093 106.52 91.4237 106.52ZM91.3197 101.892C93.2263 101.892 94.8903 101.372 96.3117 100.332C97.7677 99.2573 98.9117 97.68 99.7437 95.6C100.576 93.52 100.992 90.9547 100.992 87.904C100.992 84.8533 100.576 82.3053 99.7437 80.26C98.9117 78.18 97.7677 76.62 96.3117 75.58C94.8557 74.5053 93.1743 73.968 91.2677 73.968C89.3957 73.968 87.7317 74.5053 86.2757 75.58C84.8197 76.62 83.6757 78.18 82.8437 80.26C82.0463 82.3053 81.6477 84.8533 81.6477 87.904C81.6477 90.9547 82.0463 93.52 82.8437 95.6C83.6757 97.68 84.8197 99.2573 86.2757 100.332C87.7317 101.372 89.413 101.892 91.3197 101.892ZM118.269 84.004C116.951 84.004 115.738 83.6747 114.629 83.016C113.519 82.3573 112.635 81.4733 111.977 80.364C111.318 79.2547 110.989 78.024 110.989 76.672C110.989 75.2853 111.301 74.0547 111.925 72.98C112.583 71.9053 113.467 71.0387 114.577 70.38C115.686 69.7213 116.917 69.392 118.269 69.392C119.655 69.392 120.903 69.7213 122.013 70.38C123.122 71.0387 124.006 71.9053 124.665 72.98C125.323 74.0547 125.653 75.2853 125.653 76.672C125.653 78.024 125.323 79.2547 124.665 80.364C124.006 81.4733 123.122 82.3573 122.013 83.016C120.938 83.6747 119.69 84.004 118.269 84.004ZM118.269 80.312C119.309 80.312 120.158 79.9827 120.817 79.324C121.475 78.6307 121.805 77.7467 121.805 76.672C121.805 75.5973 121.458 74.7307 120.765 74.072C120.106 73.4133 119.274 73.084 118.269 73.084C117.263 73.084 116.431 73.4133 115.773 74.072C115.149 74.7307 114.837 75.5973 114.837 76.672C114.837 77.7467 115.149 78.6307 115.773 79.324C116.431 79.9827 117.263 80.312 118.269 80.312ZM132.777 106.52C131.425 106.52 130.194 106.191 129.085 105.532C127.975 104.873 127.091 104.007 126.433 102.932C125.774 101.823 125.445 100.575 125.445 99.188C125.445 97.836 125.774 96.6227 126.433 95.548C127.091 94.4387 127.975 93.5547 129.085 92.896C130.194 92.2373 131.425 91.908 132.777 91.908C134.129 91.908 135.359 92.2373 136.469 92.896C137.613 93.5547 138.514 94.4387 139.173 95.548C139.831 96.6227 140.161 97.836 140.161 99.188C140.161 100.575 139.831 101.823 139.173 102.932C138.514 104.007 137.63 104.873 136.521 105.532C135.411 106.191 134.163 106.52 132.777 106.52ZM132.777 102.828C133.817 102.828 134.666 102.499 135.325 101.84C135.983 101.147 136.313 100.263 136.313 99.188C136.313 98.148 135.966 97.2987 135.273 96.64C134.614 95.9467 133.782 95.6 132.777 95.6C131.771 95.6 130.939 95.9467 130.281 96.64C129.622 97.2987 129.293 98.148 129.293 99.188C129.293 100.263 129.622 101.147 130.281 101.84C130.939 102.499 131.771 102.828 132.777 102.828ZM111.613 106L134.753 69.912H139.485L116.345 106H111.613Z" fill="white"/>
</g>
<defs>
<clipPath id="clip0_51_165">
<rect width="188" height="131" fill="white"/>
</clipPath>
</defs>
</svg>
