<svg width="188" height="131" viewBox="0 0 188 131" fill="none" xmlns="http://www.w3.org/2000/svg">
<g clip-path="url(#clip0_51_181)">
<path d="M94.1876 9.83361C103.171 9.83361 110.454 7.63228 110.454 4.91681C110.454 2.20133 103.171 0 94.1876 0C85.204 0 77.9214 2.20133 77.9214 4.91681C77.9214 7.63228 85.204 9.83361 94.1876 9.83361Z" fill="#D96541"/>
<path d="M96.7526 6.0127H90.9343V23.8635H96.7526V6.0127Z" fill="#D96541"/>
<path d="M93.8435 17.6941C100.875 17.6941 106.575 16.6986 106.575 15.4706C106.575 14.2426 100.875 13.2471 93.8435 13.2471C86.8121 13.2471 81.1121 14.2426 81.1121 15.4706C81.1121 16.6986 86.8121 17.6941 93.8435 17.6941Z" fill="#D96541"/>
<path d="M106.544 15.4707H81.1121V31.2546H106.544V15.4707Z" fill="#D96541"/>
<path d="M173.329 80.4228C173.329 49.6692 137.919 24.7407 94.2191 24.7407C50.5192 24.7407 15.0776 49.6692 15.0776 80.4228C15.0776 111.176 47.2034 130.248 90.9033 130.248C134.603 130.248 173.298 111.176 173.298 80.4228H173.329Z" fill="#D96541"/>
<path d="M173.329 80.4229H15.0776V130.906H173.329V80.4229Z" fill="#D96541"/>
<path d="M15.3278 130.248C23.7931 130.248 30.6556 122.747 30.6556 113.493C30.6556 104.24 23.7931 96.7388 15.3278 96.7388C6.86248 96.7388 0 104.24 0 113.493C0 122.747 6.86248 130.248 15.3278 130.248Z" fill="#D96541"/>
<path d="M0 114.089H24.4932C29.1228 114.089 32.9078 117.847 32.9078 122.513C32.9078 127.148 29.1541 130.938 24.4932 130.938H8.41464C3.75374 130.906 0 127.148 0 122.513V114.089Z" fill="#D96541"/>
<path d="M163.069 114.183H188V123.045C188 127.461 184.434 131.031 180.023 131.031H163.069C158.658 131.031 155.092 127.461 155.092 123.045V122.169C155.092 117.753 158.658 114.183 163.069 114.183Z" fill="#D96541"/>
<path d="M172.672 130.248C181.137 130.248 188 122.747 188 113.493C188 104.24 181.137 96.7388 172.672 96.7388C164.207 96.7388 157.344 104.24 157.344 113.493C157.344 122.747 164.207 130.248 172.672 130.248Z" fill="#D96541"/>
<path d="M78.203 109.422H10.229V130.906H78.203V109.422Z" fill="#D96541"/>
<path d="M183.308 109.422H115.334V130.906H183.308V109.422Z" fill="#D96541"/>
<path d="M60.9898 106.52C58.5284 106.52 56.3271 106.087 54.3858 105.22C52.4791 104.319 50.8671 103.019 49.5498 101.32L52.8778 97.992C53.6751 99.2053 54.7671 100.176 56.1538 100.904C57.5751 101.597 59.1524 101.944 60.8858 101.944C62.5151 101.944 63.9364 101.632 65.1498 101.008C66.3978 100.384 67.3684 99.5173 68.0618 98.408C68.7898 97.264 69.1538 95.912 69.1538 94.352C69.1538 92.7573 68.8071 91.4053 68.1138 90.296C67.4204 89.1867 66.4844 88.3547 65.3058 87.8C64.1618 87.2107 62.8964 86.916 61.5098 86.916C60.0884 86.916 58.7884 87.0893 57.6098 87.436C56.4658 87.7827 55.3738 88.372 54.3338 89.204L54.3858 86.084C54.9751 85.356 55.6511 84.7667 56.4138 84.316C57.1764 83.8653 58.0431 83.5187 59.0138 83.276C59.9844 83.0333 61.1111 82.912 62.3938 82.912C64.8898 82.912 67.0044 83.432 68.7378 84.472C70.4711 85.512 71.7884 86.916 72.6898 88.684C73.6258 90.452 74.0938 92.428 74.0938 94.612C74.0938 96.9 73.5218 98.9453 72.3778 100.748C71.2684 102.551 69.7258 103.972 67.7498 105.012C65.7738 106.017 63.5204 106.52 60.9898 106.52ZM54.3338 89.204L51.6818 86.552L53.2938 69.912H57.7658L55.9458 87.02L54.3338 89.204ZM54.2818 74.28L53.2938 69.912H72.2738V74.28H54.2818ZM83.8706 106L94.7386 91.18L96.5066 90.244C96.0906 90.9373 95.5879 91.544 94.9986 92.064C94.4092 92.584 93.6812 92.9827 92.8146 93.26C91.9826 93.5373 90.9599 93.676 89.7466 93.676C87.6666 93.676 85.7426 93.1733 83.9746 92.168C82.2412 91.1627 80.8546 89.776 79.8146 88.008C78.7746 86.2053 78.2546 84.1773 78.2546 81.924C78.2546 79.6013 78.8266 77.504 79.9706 75.632C81.1146 73.7253 82.6399 72.2173 84.5466 71.108C86.4532 69.964 88.5679 69.392 90.8906 69.392C93.2479 69.392 95.3799 69.9467 97.2866 71.056C99.1932 72.1653 100.701 73.656 101.811 75.528C102.92 77.3653 103.475 79.4453 103.475 81.768C103.475 84.9573 102.365 88.1293 100.147 91.284L89.5386 106H83.8706ZM90.8906 89.828C92.3466 89.828 93.6466 89.4813 94.7906 88.788C95.9692 88.06 96.8879 87.1067 97.5466 85.928C98.2399 84.7147 98.5866 83.38 98.5866 81.924C98.5866 80.3987 98.2399 79.0467 97.5466 77.868C96.8879 76.6547 95.9692 75.7013 94.7906 75.008C93.6466 74.3147 92.3466 73.968 90.8906 73.968C89.4346 73.968 88.1172 74.3147 86.9386 75.008C85.7946 75.7013 84.8759 76.6547 84.1826 77.868C83.4892 79.0467 83.1426 80.3987 83.1426 81.924C83.1426 83.4147 83.4892 84.7493 84.1826 85.928C84.8759 87.1067 85.8119 88.06 86.9906 88.788C88.1692 89.4813 89.4692 89.828 90.8906 89.828ZM115.458 84.004C114.141 84.004 112.927 83.6747 111.818 83.016C110.709 82.3573 109.825 81.4733 109.166 80.364C108.507 79.2547 108.178 78.024 108.178 76.672C108.178 75.2853 108.49 74.0547 109.114 72.98C109.773 71.9053 110.657 71.0387 111.766 70.38C112.875 69.7213 114.106 69.392 115.458 69.392C116.845 69.392 118.093 69.7213 119.202 70.38C120.311 71.0387 121.195 71.9053 121.854 72.98C122.513 74.0547 122.842 75.2853 122.842 76.672C122.842 78.024 122.513 79.2547 121.854 80.364C121.195 81.4733 120.311 82.3573 119.202 83.016C118.127 83.6747 116.879 84.004 115.458 84.004ZM115.458 80.312C116.498 80.312 117.347 79.9827 118.006 79.324C118.665 78.6307 118.994 77.7467 118.994 76.672C118.994 75.5973 118.647 74.7307 117.954 74.072C117.295 73.4133 116.463 73.084 115.458 73.084C114.453 73.084 113.621 73.4133 112.962 74.072C112.338 74.7307 112.026 75.5973 112.026 76.672C112.026 77.7467 112.338 78.6307 112.962 79.324C113.621 79.9827 114.453 80.312 115.458 80.312ZM129.966 106.52C128.614 106.52 127.383 106.191 126.274 105.532C125.165 104.873 124.281 104.007 123.622 102.932C122.963 101.823 122.634 100.575 122.634 99.188C122.634 97.836 122.963 96.6227 123.622 95.548C124.281 94.4387 125.165 93.5547 126.274 92.896C127.383 92.2373 128.614 91.908 129.966 91.908C131.318 91.908 132.549 92.2373 133.658 92.896C134.802 93.5547 135.703 94.4387 136.362 95.548C137.021 96.6227 137.35 97.836 137.35 99.188C137.35 100.575 137.021 101.823 136.362 102.932C135.703 104.007 134.819 104.873 133.71 105.532C132.601 106.191 131.353 106.52 129.966 106.52ZM129.966 102.828C131.006 102.828 131.855 102.499 132.514 101.84C133.173 101.147 133.502 100.263 133.502 99.188C133.502 98.148 133.155 97.2987 132.462 96.64C131.803 95.9467 130.971 95.6 129.966 95.6C128.961 95.6 128.129 95.9467 127.47 96.64C126.811 97.2987 126.482 98.148 126.482 99.188C126.482 100.263 126.811 101.147 127.47 101.84C128.129 102.499 128.961 102.828 129.966 102.828ZM108.802 106L131.942 69.912H136.674L113.534 106H108.802Z" fill="white"/>
</g>
<defs>
<clipPath id="clip0_51_181">
<rect width="188" height="131" fill="white"/>
</clipPath>
</defs>
</svg>
