<svg width="188" height="131" viewBox="0 0 188 131" fill="none" xmlns="http://www.w3.org/2000/svg">
<g clip-path="url(#clip0_57_10)">
<path d="M94.1876 9.83361C103.171 9.83361 110.454 7.63228 110.454 4.91681C110.454 2.20133 103.171 0 94.1876 0C85.204 0 77.9214 2.20133 77.9214 4.91681C77.9214 7.63228 85.204 9.83361 94.1876 9.83361Z" fill="#D96541"/>
<path d="M96.7529 6.0127H90.9346V23.8635H96.7529V6.0127Z" fill="#D96541"/>
<path d="M93.8438 17.6941C100.875 17.6941 106.575 16.6986 106.575 15.4706C106.575 14.2426 100.875 13.2471 93.8438 13.2471C86.8124 13.2471 81.1123 14.2426 81.1123 15.4706C81.1123 16.6986 86.8124 17.6941 93.8438 17.6941Z" fill="#D96541"/>
<path d="M106.544 15.4707H81.1123V31.2546H106.544V15.4707Z" fill="#D96541"/>
<path d="M173.329 80.4228C173.329 49.6692 137.919 24.7407 94.2191 24.7407C50.5192 24.7407 15.0776 49.6692 15.0776 80.4228C15.0776 111.176 47.2034 130.248 90.9033 130.248C134.603 130.248 173.298 111.176 173.298 80.4228H173.329Z" fill="#D96541"/>
<path d="M173.329 80.4229H15.0776V130.906H173.329V80.4229Z" fill="#D96541"/>
<path d="M15.3278 130.248C23.7931 130.248 30.6556 122.747 30.6556 113.493C30.6556 104.24 23.7931 96.7388 15.3278 96.7388C6.86248 96.7388 0 104.24 0 113.493C0 122.747 6.86248 130.248 15.3278 130.248Z" fill="#D96541"/>
<path d="M0 114.089H24.4932C29.1228 114.089 32.9078 117.847 32.9078 122.513C32.9078 127.148 29.1541 130.938 24.4932 130.938H8.41464C3.75374 130.906 0 127.148 0 122.513V114.089Z" fill="#D96541"/>
<path d="M163.069 114.183H188V123.045C188 127.461 184.434 131.031 180.023 131.031H163.069C158.658 131.031 155.092 127.461 155.092 123.045V122.169C155.092 117.753 158.658 114.183 163.069 114.183Z" fill="#D96541"/>
<path d="M172.672 130.248C181.137 130.248 188 122.747 188 113.493C188 104.24 181.137 96.7388 172.672 96.7388C164.207 96.7388 157.344 104.24 157.344 113.493C157.344 122.747 164.207 130.248 172.672 130.248Z" fill="#D96541"/>
<path d="M78.203 109.422H10.229V130.906H78.203V109.422Z" fill="#D96541"/>
<path d="M183.308 109.422H115.334V130.906H183.308V109.422Z" fill="#D96541"/>
<path d="M56.7448 106L70.2648 72.772L75.1008 72.928L61.8928 106H56.7448ZM51.0768 74.28V69.912H75.1008V72.928L72.9688 74.28H51.0768ZM89.9172 106.52C87.5252 106.52 85.4105 106.069 83.5732 105.168C81.7705 104.267 80.3665 103.019 79.3612 101.424C78.3559 99.8293 77.8532 98.0267 77.8532 96.016C77.8532 94.3867 78.1652 92.896 78.7892 91.544C79.4132 90.192 80.3319 89.048 81.5452 88.112C82.7585 87.1413 84.1799 86.448 85.8092 86.032L85.9652 87.436C84.5785 87.0547 83.3999 86.448 82.4292 85.616C81.4585 84.7493 80.7132 83.744 80.1932 82.6C79.7079 81.4213 79.4652 80.1733 79.4652 78.856C79.4652 76.984 79.9159 75.3373 80.8172 73.916C81.7185 72.4947 82.9492 71.3853 84.5092 70.588C86.1039 69.756 87.9065 69.34 89.9172 69.34C91.9625 69.34 93.7652 69.756 95.3252 70.588C96.8852 71.3853 98.1159 72.4947 99.0172 73.916C99.9185 75.3373 100.369 76.984 100.369 78.856C100.369 80.1733 100.109 81.4213 99.5892 82.6C99.1039 83.744 98.3759 84.7493 97.4052 85.616C96.4692 86.448 95.3079 87.0547 93.9212 87.436L94.0252 86.032C95.6892 86.448 97.1105 87.1413 98.2892 88.112C99.5025 89.048 100.421 90.192 101.045 91.544C101.704 92.896 102.033 94.3867 102.033 96.016C102.033 98.0267 101.531 99.8293 100.525 101.424C99.5199 103.019 98.0985 104.267 96.2612 105.168C94.4585 106.069 92.3439 106.52 89.9172 106.52ZM89.9172 102.1C91.3732 102.1 92.6385 101.823 93.7132 101.268C94.8225 100.679 95.6892 99.8813 96.3132 98.876C96.9719 97.8707 97.3012 96.7093 97.3012 95.392C97.3012 94.1093 96.9719 92.9653 96.3132 91.96C95.6892 90.9547 94.8225 90.1747 93.7132 89.62C92.6385 89.0307 91.3732 88.736 89.9172 88.736C88.4959 88.736 87.2305 89.0307 86.1212 89.62C85.0119 90.1747 84.1279 90.9547 83.4692 91.96C82.8452 92.9653 82.5332 94.1093 82.5332 95.392C82.5332 96.7093 82.8452 97.8707 83.4692 98.876C84.1279 99.8813 85.0119 100.679 86.1212 101.268C87.2305 101.823 88.4959 102.1 89.9172 102.1ZM89.9172 84.94C91.6505 84.94 93.0719 84.4027 94.1812 83.328C95.2905 82.2533 95.8452 80.8667 95.8452 79.168C95.8452 77.504 95.2905 76.152 94.1812 75.112C93.0719 74.0373 91.6505 73.5 89.9172 73.5C88.2185 73.5 86.8145 74.0373 85.7052 75.112C84.5959 76.152 84.0412 77.504 84.0412 79.168C84.0412 80.8667 84.5959 82.2533 85.7052 83.328C86.8145 84.4027 88.2185 84.94 89.9172 84.94ZM114.087 84.004C112.77 84.004 111.556 83.6747 110.447 83.016C109.338 82.3573 108.454 81.4733 107.795 80.364C107.136 79.2547 106.807 78.024 106.807 76.672C106.807 75.2853 107.119 74.0547 107.743 72.98C108.402 71.9053 109.286 71.0387 110.395 70.38C111.504 69.7213 112.735 69.392 114.087 69.392C115.474 69.392 116.722 69.7213 117.831 70.38C118.94 71.0387 119.824 71.9053 120.483 72.98C121.142 74.0547 121.471 75.2853 121.471 76.672C121.471 78.024 121.142 79.2547 120.483 80.364C119.824 81.4733 118.94 82.3573 117.831 83.016C116.756 83.6747 115.508 84.004 114.087 84.004ZM114.087 80.312C115.127 80.312 115.976 79.9827 116.635 79.324C117.294 78.6307 117.623 77.7467 117.623 76.672C117.623 75.5973 117.276 74.7307 116.583 74.072C115.924 73.4133 115.092 73.084 114.087 73.084C113.082 73.084 112.25 73.4133 111.591 74.072C110.967 74.7307 110.655 75.5973 110.655 76.672C110.655 77.7467 110.967 78.6307 111.591 79.324C112.25 79.9827 113.082 80.312 114.087 80.312ZM128.595 106.52C127.243 106.52 126.012 106.191 124.903 105.532C123.794 104.873 122.91 104.007 122.251 102.932C121.592 101.823 121.263 100.575 121.263 99.188C121.263 97.836 121.592 96.6227 122.251 95.548C122.91 94.4387 123.794 93.5547 124.903 92.896C126.012 92.2373 127.243 91.908 128.595 91.908C129.947 91.908 131.178 92.2373 132.287 92.896C133.431 93.5547 134.332 94.4387 134.991 95.548C135.65 96.6227 135.979 97.836 135.979 99.188C135.979 100.575 135.65 101.823 134.991 102.932C134.332 104.007 133.448 104.873 132.339 105.532C131.23 106.191 129.982 106.52 128.595 106.52ZM128.595 102.828C129.635 102.828 130.484 102.499 131.143 101.84C131.802 101.147 132.131 100.263 132.131 99.188C132.131 98.148 131.784 97.2987 131.091 96.64C130.432 95.9467 129.6 95.6 128.595 95.6C127.59 95.6 126.758 95.9467 126.099 96.64C125.44 97.2987 125.111 98.148 125.111 99.188C125.111 100.263 125.44 101.147 126.099 101.84C126.758 102.499 127.59 102.828 128.595 102.828ZM107.431 106L130.571 69.912H135.303L112.163 106H107.431Z" fill="white"/>
</g>
<defs>
<clipPath id="clip0_57_10">
<rect width="188" height="131" fill="white"/>
</clipPath>
</defs>
</svg>
