<svg width="188" height="131" viewBox="0 0 188 131" fill="none" xmlns="http://www.w3.org/2000/svg">
<g clip-path="url(#clip0_51_213)">
<path d="M94.1876 9.83361C103.171 9.83361 110.454 7.63228 110.454 4.91681C110.454 2.20133 103.171 0 94.1876 0C85.204 0 77.9214 2.20133 77.9214 4.91681C77.9214 7.63228 85.204 9.83361 94.1876 9.83361Z" fill="#D96541"/>
<path d="M96.7529 6.0127H90.9346V23.8635H96.7529V6.0127Z" fill="#D96541"/>
<path d="M93.8438 17.6941C100.875 17.6941 106.575 16.6986 106.575 15.4706C106.575 14.2426 100.875 13.2471 93.8438 13.2471C86.8124 13.2471 81.1123 14.2426 81.1123 15.4706C81.1123 16.6986 86.8124 17.6941 93.8438 17.6941Z" fill="#D96541"/>
<path d="M106.544 15.4707H81.1123V31.2546H106.544V15.4707Z" fill="#D96541"/>
<path d="M173.329 80.4228C173.329 49.6692 137.919 24.7407 94.2191 24.7407C50.5192 24.7407 15.0776 49.6692 15.0776 80.4228C15.0776 111.176 47.2034 130.248 90.9033 130.248C134.603 130.248 173.298 111.176 173.298 80.4228H173.329Z" fill="#D96541"/>
<path d="M173.329 80.4229H15.0776V130.906H173.329V80.4229Z" fill="#D96541"/>
<path d="M15.3278 130.248C23.7931 130.248 30.6556 122.747 30.6556 113.493C30.6556 104.24 23.7931 96.7388 15.3278 96.7388C6.86248 96.7388 0 104.24 0 113.493C0 122.747 6.86248 130.248 15.3278 130.248Z" fill="#D96541"/>
<path d="M0 114.089H24.4932C29.1228 114.089 32.9078 117.847 32.9078 122.513C32.9078 127.148 29.1541 130.938 24.4932 130.938H8.41464C3.75374 130.906 0 127.148 0 122.513V114.089Z" fill="#D96541"/>
<path d="M163.069 114.183H188V123.045C188 127.461 184.434 131.031 180.023 131.031H163.069C158.658 131.031 155.092 127.461 155.092 123.045V122.169C155.092 117.753 158.658 114.183 163.069 114.183Z" fill="#D96541"/>
<path d="M172.672 130.248C181.137 130.248 188 122.747 188 113.493C188 104.24 181.137 96.7388 172.672 96.7388C164.207 96.7388 157.344 104.24 157.344 113.493C157.344 122.747 164.207 130.248 172.672 130.248Z" fill="#D96541"/>
<path d="M78.203 109.422H10.229V130.906H78.203V109.422Z" fill="#D96541"/>
<path d="M183.308 109.422H115.334V130.906H183.308V109.422Z" fill="#D96541"/>
<path d="M57.0073 106L67.8753 91.18L69.6433 90.244C69.2273 90.9373 68.7246 91.544 68.1353 92.064C67.5459 92.584 66.8179 92.9827 65.9513 93.26C65.1193 93.5373 64.0966 93.676 62.8833 93.676C60.8033 93.676 58.8793 93.1733 57.1113 92.168C55.3779 91.1627 53.9913 89.776 52.9513 88.008C51.9113 86.2053 51.3913 84.1773 51.3913 81.924C51.3913 79.6013 51.9633 77.504 53.1073 75.632C54.2513 73.7253 55.7766 72.2173 57.6833 71.108C59.5899 69.964 61.7046 69.392 64.0273 69.392C66.3846 69.392 68.5166 69.9467 70.4233 71.056C72.3299 72.1653 73.8379 73.656 74.9473 75.528C76.0566 77.3653 76.6113 79.4453 76.6113 81.768C76.6113 84.9573 75.5019 88.1293 73.2833 91.284L62.6753 106H57.0073ZM64.0273 89.828C65.4833 89.828 66.7833 89.4813 67.9273 88.788C69.1059 88.06 70.0246 87.1067 70.6833 85.928C71.3766 84.7147 71.7233 83.38 71.7233 81.924C71.7233 80.3987 71.3766 79.0467 70.6833 77.868C70.0246 76.6547 69.1059 75.7013 67.9273 75.008C66.7833 74.3147 65.4833 73.968 64.0273 73.968C62.5713 73.968 61.2539 74.3147 60.0753 75.008C58.9313 75.7013 58.0126 76.6547 57.3193 77.868C56.6259 79.0467 56.2793 80.3987 56.2793 81.924C56.2793 83.4147 56.6259 84.7493 57.3193 85.928C58.0126 87.1067 58.9486 88.06 60.1273 88.788C61.3059 89.4813 62.6059 89.828 64.0273 89.828ZM84.2683 106L97.7883 72.772L102.624 72.928L89.4163 106H84.2683ZM78.6003 74.28V69.912H102.624V72.928L100.492 74.28H78.6003ZM114.189 84.004C112.871 84.004 111.658 83.6747 110.549 83.016C109.439 82.3573 108.555 81.4733 107.897 80.364C107.238 79.2547 106.909 78.024 106.909 76.672C106.909 75.2853 107.221 74.0547 107.845 72.98C108.503 71.9053 109.387 71.0387 110.497 70.38C111.606 69.7213 112.837 69.392 114.189 69.392C115.575 69.392 116.823 69.7213 117.933 70.38C119.042 71.0387 119.926 71.9053 120.585 72.98C121.243 74.0547 121.573 75.2853 121.573 76.672C121.573 78.024 121.243 79.2547 120.585 80.364C119.926 81.4733 119.042 82.3573 117.933 83.016C116.858 83.6747 115.61 84.004 114.189 84.004ZM114.189 80.312C115.229 80.312 116.078 79.9827 116.737 79.324C117.395 78.6307 117.725 77.7467 117.725 76.672C117.725 75.5973 117.378 74.7307 116.685 74.072C116.026 73.4133 115.194 73.084 114.189 73.084C113.183 73.084 112.351 73.4133 111.693 74.072C111.069 74.7307 110.757 75.5973 110.757 76.672C110.757 77.7467 111.069 78.6307 111.693 79.324C112.351 79.9827 113.183 80.312 114.189 80.312ZM128.697 106.52C127.345 106.52 126.114 106.191 125.005 105.532C123.895 104.873 123.011 104.007 122.353 102.932C121.694 101.823 121.365 100.575 121.365 99.188C121.365 97.836 121.694 96.6227 122.353 95.548C123.011 94.4387 123.895 93.5547 125.005 92.896C126.114 92.2373 127.345 91.908 128.697 91.908C130.049 91.908 131.279 92.2373 132.389 92.896C133.533 93.5547 134.434 94.4387 135.093 95.548C135.751 96.6227 136.081 97.836 136.081 99.188C136.081 100.575 135.751 101.823 135.093 102.932C134.434 104.007 133.55 104.873 132.441 105.532C131.331 106.191 130.083 106.52 128.697 106.52ZM128.697 102.828C129.737 102.828 130.586 102.499 131.245 101.84C131.903 101.147 132.233 100.263 132.233 99.188C132.233 98.148 131.886 97.2987 131.193 96.64C130.534 95.9467 129.702 95.6 128.697 95.6C127.691 95.6 126.859 95.9467 126.201 96.64C125.542 97.2987 125.213 98.148 125.213 99.188C125.213 100.263 125.542 101.147 126.201 101.84C126.859 102.499 127.691 102.828 128.697 102.828ZM107.533 106L130.673 69.912H135.405L112.265 106H107.533Z" fill="white"/>
</g>
<defs>
<clipPath id="clip0_51_213">
<rect width="188" height="131" fill="white"/>
</clipPath>
</defs>
</svg>
