<svg width="188" height="131" viewBox="0 0 188 131" fill="none" xmlns="http://www.w3.org/2000/svg">
<g clip-path="url(#clip0_48_79)">
<path d="M94.1881 9.83361C103.172 9.83361 110.454 7.63228 110.454 4.91681C110.454 2.20133 103.172 0 94.1881 0C85.2045 0 77.9219 2.20133 77.9219 4.91681C77.9219 7.63228 85.2045 9.83361 94.1881 9.83361Z" fill="#D96541"/>
<path d="M96.7529 6.0127H90.9346V23.8635H96.7529V6.0127Z" fill="#D96541"/>
<path d="M93.8438 17.6941C100.875 17.6941 106.575 16.6986 106.575 15.4706C106.575 14.2426 100.875 13.2471 93.8438 13.2471C86.8124 13.2471 81.1123 14.2426 81.1123 15.4706C81.1123 16.6986 86.8124 17.6941 93.8438 17.6941Z" fill="#D96541"/>
<path d="M106.544 15.4707H81.1123V31.2546H106.544V15.4707Z" fill="#D96541"/>
<path d="M173.329 80.4228C173.329 49.6692 137.918 24.7407 94.2186 24.7407C50.5188 24.7407 15.0771 49.6692 15.0771 80.4228C15.0771 111.176 47.2029 130.248 90.9028 130.248C134.603 130.248 173.297 111.176 173.297 80.4228H173.329Z" fill="#D96541"/>
<path d="M173.329 80.4229H15.0771V130.906H173.329V80.4229Z" fill="#D96541"/>
<path d="M15.3278 130.248C23.7931 130.248 30.6556 122.747 30.6556 113.493C30.6556 104.24 23.7931 96.7388 15.3278 96.7388C6.86248 96.7388 0 104.24 0 113.493C0 122.747 6.86248 130.248 15.3278 130.248Z" fill="#D96541"/>
<path d="M0 114.089H24.4932C29.1228 114.089 32.9078 117.847 32.9078 122.513C32.9078 127.148 29.1541 130.938 24.4932 130.938H8.41464C3.75374 130.906 0 127.148 0 122.513V114.089Z" fill="#D96541"/>
<path d="M163.069 114.183H188V123.045C188 127.461 184.434 131.031 180.023 131.031H163.069C158.658 131.031 155.092 127.461 155.092 123.045V122.169C155.092 117.753 158.658 114.183 163.069 114.183Z" fill="#D96541"/>
<path d="M172.673 130.248C181.138 130.248 188 122.747 188 113.493C188 104.24 181.138 96.7388 172.673 96.7388C164.207 96.7388 157.345 104.24 157.345 113.493C157.345 122.747 164.207 130.248 172.673 130.248Z" fill="#D96541"/>
<path d="M78.2026 109.422H10.2285V130.906H78.2026V109.422Z" fill="#D96541"/>
<path d="M183.308 109.422H115.334V130.906H183.308V109.422Z" fill="#D96541"/>
<path d="M58.768 101V68.648H63.28V101H58.768ZM47.44 71.816V67.688H74.56V71.816H47.44ZM92.6665 101.48C90.2985 101.48 88.0905 101.048 86.0425 100.184C83.9945 99.288 82.2025 98.056 80.6665 96.488C79.1305 94.888 77.9305 93.048 77.0665 90.968C76.2345 88.888 75.8185 86.664 75.8185 84.296C75.8185 81.896 76.2345 79.672 77.0665 77.624C77.9305 75.544 79.1145 73.72 80.6185 72.152C82.1545 70.584 83.9305 69.368 85.9465 68.504C87.9945 67.64 90.2025 67.208 92.5705 67.208C94.9385 67.208 97.1305 67.64 99.1465 68.504C101.195 69.368 102.987 70.584 104.523 72.152C106.059 73.72 107.259 75.544 108.123 77.624C108.987 79.704 109.419 81.944 109.419 84.344C109.419 86.712 108.987 88.936 108.123 91.016C107.259 93.096 106.059 94.92 104.523 96.488C103.019 98.056 101.243 99.288 99.1945 100.184C97.1785 101.048 95.0025 101.48 92.6665 101.48ZM92.5705 97.16C94.9705 97.16 97.0665 96.616 98.8585 95.528C100.683 94.408 102.123 92.888 103.179 90.968C104.235 89.016 104.763 86.792 104.763 84.296C104.763 82.44 104.459 80.744 103.851 79.208C103.243 77.64 102.395 76.28 101.307 75.128C100.219 73.976 98.9385 73.096 97.4665 72.488C95.9945 71.848 94.3625 71.528 92.5705 71.528C90.2025 71.528 88.1065 72.072 86.2825 73.16C84.4905 74.248 83.0665 75.752 82.0105 77.672C80.9865 79.592 80.4745 81.8 80.4745 84.296C80.4745 86.152 80.7625 87.88 81.3385 89.48C81.9465 91.048 82.7785 92.408 83.8345 93.56C84.9225 94.68 86.2025 95.56 87.6745 96.2C89.1785 96.84 90.8105 97.16 92.5705 97.16ZM118.632 88.04V84.104H127.704C128.952 84.104 130.056 83.848 131.016 83.336C132.008 82.824 132.776 82.104 133.32 81.176C133.896 80.248 134.184 79.144 134.184 77.864C134.184 76.584 133.896 75.48 133.32 74.552C132.776 73.624 132.008 72.904 131.016 72.392C130.056 71.88 128.952 71.624 127.704 71.624H118.632V67.688H127.992C130.04 67.688 131.864 68.104 133.464 68.936C135.096 69.768 136.376 70.952 137.304 72.488C138.264 73.992 138.744 75.784 138.744 77.864C138.744 79.912 138.264 81.704 137.304 83.24C136.376 84.744 135.096 85.928 133.464 86.792C131.864 87.624 130.04 88.04 127.992 88.04H118.632ZM115.608 101V67.688H120.12V101H115.608Z" fill="white"/>
</g>
<defs>
<clipPath id="clip0_48_79">
<rect width="188" height="131" fill="white"/>
</clipPath>
</defs>
</svg>
